:FULLY-SPECIFIED
:FORCE-ALL-JOINTS-BE-3DOF
:DEGREES
3160
root 0.95161 16.9233 -33.3627 6.06118 5.19742 -3.76389
lfemur -18.6086 -2.46615 -8.23906
ltibia 35.2538 -0 0
lfoot -16.3867 7.68121 -0.000987882
ltoes -40.6601 0 0
rfemur -19.3959 -0.195129 18.4957
rtibia 38.9784 -0 0
rfoot -12.1479 -21.0539 -0.000703289
rtoes -16.396 0 0
lowerback 5.77613 1.5273 -0.532287
upperback -4.09147 2.13375 1.85279
thorax -7.62706 1.13321 1.98177
lowerneck -5.42013 -5.1434 -7.88658
upperneck 9.37558 -6.79624 5.98361
head 4.1574 -3.34033 2.73023
lclavicle -1.43323e-14 2.06239e-15 0
lhumerus -33.4154 -18.2966 94.7792
lradius 51.3153 -0 0
lwrist -9.03112 0 0
lhand -34.0986 29.4126 -0.0018532
lfingers 7.12502 -0 0
lthumb -7.27473 59.2671 -0.0018184
rclavicle -1.43323e-14 2.06239e-15 0
rhumerus -35.545 13.9563 -81.3498
rradius 50.3226 -0 0
rwrist 1.71455 0 0
rhand -29.2452 -34.1339 0.000522609
rfingers 7.12502 -0 0
rthumb -2.58849 -64.0972 0.000480443
3161
root 0.955966 16.9249 -33.3593 6.05805 5.13741 -3.79376
lfemur -18.5427 -2.48196 -8.24482
ltibia 35.2059 -0 0
lfoot -16.3697 7.75372 -0.00141327
ltoes -40.6356 0 0
rfemur -19.3316 -0.161532 18.4963
rtibia 38.8679 -0 0
rfoot -12.1135 -21.0207 -0.00100679
rtoes -16.3903 0 0
lowerback 5.74823 1.53611 -0.541269
upperback -4.11056 2.14502 1.85306
thorax -7.63217 1.13941 1.98609
lowerneck -5.45782 -5.13642 -7.8772
upperneck 9.46814 -6.7882 5.9822
head 4.18897 -3.33554 2.72448
lclavicle -1.43323e-14 2.06239e-15 0
lhumerus -33.4087 -18.069 94.6884
lradius 50.8912 -0 0
lwrist -9.18708 0 0
lhand -34.1232 29.3912 -0.00266293
lfingers 7.12502 -0 0
lthumb -7.29848 59.2449 -0.00261301
rclavicle -1.43323e-14 2.06239e-15 0
rhumerus -35.5459 13.6865 -81.3017
rradius 49.7667 -0 0
rwrist 1.87374 0 0
rhand -29.1936 -34.139 0.000973055
rfingers 7.12502 -0 0
rthumb -2.53865 -64.1026 0.000892754
3162
root 0.960323 16.9265 -33.3559 6.0557 5.07694 -3.82223
lfemur -18.4783 -2.49558 -8.25081
ltibia 35.1591 -0 0
lfoot -16.3534 7.82431 -0.00179372
ltoes -40.6099 0 0
rfemur -19.2707 -0.128896 18.4967
rtibia 38.7618 -0 0
rfoot -12.081 -20.9876 -0.00127882
rtoes -16.3841 0 0
lowerback 5.72146 1.54496 -0.549931
upperback -4.12944 2.15638 1.85346
thorax -7.63772 1.14564 1.99036
lowerneck -5.49355 -5.12868 -7.86781
upperneck 9.55769 -6.77918 5.98061
head 4.21946 -3.3303 2.71915
lclavicle -1.43323e-14 2.06239e-15 0
lhumerus -33.3955 -17.8449 94.5994
lradius 50.4631 -0 0
lwrist -9.34578 0 0
lhand -34.1457 29.3753 -0.00339261
lfingers 7.12502 -0 0
lthumb -7.32019 59.2283 -0.00332913
rclavicle -1.43323e-14 2.06239e-15 0
rhumerus -35.5451 13.4193 -81.2533
rradius 49.2212 -0 0
rwrist 2.02266 0 0
rhand -29.1378 -34.1401 0.00153278
rfingers 7.12502 -0 0
rthumb -2.48473 -64.1041 0.00140453
3163
root 0.964679 16.9281 -33.3525 6.0541 5.01605 -3.84934
lfemur -18.4153 -2.50709 -8.25701
ltibia 35.1136 -0 0
lfoot -16.3379 7.89303 -0.00213
ltoes -40.5832 0 0
rfemur -19.2131 -0.0972071 18.497
rtibia 38.6601 -0 0
rfoot -12.0503 -20.9546 -0.00151994
rtoes -16.3773 0 0
lowerback 5.69579 1.55383 -0.55828
upperback -4.14813 2.16782 1.85398
thorax -7.64371 1.1519 1.99456
lowerneck -5.5274 -5.12022 -7.85842
upperneck 9.64432 -6.76923 5.97888
head 4.24889 -3.32464 2.7142
lclavicle -1.43323e-14 2.06239e-15 0
lhumerus -33.3761 -17.624 94.5123
lradius 50.0313 -0 0
lwrist -9.50705 0 0
lhand -34.1661 29.3646 -0.00404172
lfingers 7.12502 -0 0
lthumb -7.33993 59.2171 -0.00396626
rclavicle -1.43323e-14 2.06239e-15 0
rhumerus -35.5426 13.1548 -81.2049
rradius 48.6863 -0 0
rwrist 2.16166 0 0
rhand -29.0778 -34.1375 0.00218857
rfingers 7.12502 -0 0
rthumb -2.42684 -64.102 0.00200375
3164
root 0.969035 16.9297 -33.3491 6.05318 4.95481 -3.87514
lfemur -18.3538 -2.5166 -8.26341
ltibia 35.0693 -0 0
lfoot -16.3231 7.95994 -0.002423
ltoes -40.5554 0 0
rfemur -19.1587 -0.0664528 18.497
rtibia 38.5627 -0 0
rfoot -12.0213 -20.9219 -0.00173078
rtoes -16.3701 0 0
lowerback 5.6712 1.56274 -0.566324
upperback -4.16661 2.17933 1.85463
thorax -7.6501 1.15819 1.9987
lowerneck -5.55943 -5.11109 -7.84903
upperneck 9.7281 -6.7584 5.97701
head 4.27729 -3.31858 2.70965
lclavicle -1.43323e-14 2.06239e-15 0
lhumerus -33.3507 -17.4063 94.4271
lradius 49.5962 -0 0
lwrist -9.6707 0 0
lhand -34.1846 29.3589 -0.00461053
lfingers 7.12502 -0 0
lthumb -7.35776 59.2109 -0.00452468
rclavicle -1.43323e-14 2.06239e-15 0
rhumerus -35.5386 12.893 -81.1563
rradius 48.1617 -0 0
rwrist 2.29109 0 0
rhand -29.0139 -34.1314 0.00292681
rfingers 7.12502 -0 0
rthumb -2.36509 -64.0965 0.00267801
3165
root 0.973391 16.9313 -33.3457 6.05289 4.89325 -3.89969
lfemur -18.2936 -2.52417 -8.26999
ltibia 35.0261 -0 0
lfoot -16.3091 8.02509 -0.00267378
ltoes -40.5268 0 0
rfemur -19.1073 -0.0366203 18.4968
rtibia 38.4695 -0 0
rfoot -11.994 -20.8893 -0.00191203
rtoes -16.3625 0 0
lowerback 5.64767 1.57165 -0.574069
upperback -4.18487 2.1909 1.85539
thorax -7.65688 1.16449 2.00276
lowerneck -5.58971 -5.10133 -7.83964
upperneck 9.80913 -6.74677 5.97502
head 4.3047 -3.31215 2.70545
lclavicle -1.43323e-14 2.06239e-15 0
lhumerus -33.3198 -17.1918 94.3435
lradius 49.1583 -0 0
lwrist -9.83656 0 0
lhand -34.2012 29.3581 -0.00510002
lfingers 7.12502 -0 0
lthumb -7.37377 59.2096 -0.00500532
rclavicle -1.43323e-14 2.06239e-15 0
rhumerus -35.5331 12.6341 -81.1078
rradius 47.6474 -0 0
rwrist 2.41128 0 0
rhand -28.9461 -34.1221 0.0037337
rfingers 7.12502 -0 0
rthumb -2.29958 -64.0877 0.00341472
